<svg id="Layer_1" viewBox="0 0 300 300" xmlns="http://www.w3.org/2000/svg" data-name="Layer 1"><path d="m150 16.35a10 10 0 0 1 9.11 5.65l26.31 53.29a49.16 49.16 0 0 0 37.05 26.92l58.81 8.54a10.17 10.17 0 0 1 5.63 17.34l-42.56 41.48a49.2 49.2 0 0 0 -14.15 43.56l10.05 58.57a9.81 9.81 0 0 1 -2.17 8.2 10.44 10.44 0 0 1 -7.85 3.73 10 10 0 0 1 -4.73-1.22l-52.6-27.65a49.23 49.23 0 0 0 -45.8 0l-52.6 27.67a10 10 0 0 1 -4.73 1.22 10.44 10.44 0 0 1 -7.85-3.73 9.81 9.81 0 0 1 -2.17-8.2l10-58.57a49.2 49.2 0 0 0 -14.15-43.56l-42.51-41.48a10.17 10.17 0 0 1 5.63-17.34l58.81-8.54a49.16 49.16 0 0 0 37.05-26.92l26.31-53.31a10 10 0 0 1 9.11-5.65m0-10a19.93 19.93 0 0 0 -18.08 11.24l-26.3 53.29a39.17 39.17 0 0 1 -29.52 21.45l-58.81 8.55a20.16 20.16 0 0 0 -11.18 34.39l42.56 41.48a39.22 39.22 0 0 1 11.27 34.71l-10.04 58.54a20.11 20.11 0 0 0 29.25 21.26l52.61-27.66a39.22 39.22 0 0 1 36.48 0l52.61 27.66a20.11 20.11 0 0 0 29.25-21.26l-10-58.57a39.22 39.22 0 0 1 11.27-34.71l42.56-41.48a20.16 20.16 0 0 0 -11.18-34.39l-58.85-8.52a39.17 39.17 0 0 1 -29.52-21.45l-26.3-53.29a19.93 19.93 0 0 0 -18.08-11.24z"></path></svg>